<svg xmlns="http://www.w3.org/2000/svg" viewBox="0 0 64 64" role="img" aria-label="Hair By ReneNeme">
  <rect width="64" height="64" rx="18" fill="#2B211C"/>
  <rect x="6" y="6" width="52" height="52" rx="14" fill="none" stroke="#6A4C2F" stroke-width="1.5"/>
  <path d="M14 43V21h9.6c5.2 0 8.6 2.9 8.6 7.2 0 2.8-1.5 5.1-4 6.3L33.2 43h-6.3l-4.2-7.5H20V43h-6Zm6-12.3h3.3c1.9 0 3.1-.9 3.1-2.5s-1.2-2.5-3.1-2.5H20v5Z" fill="#F5EDE1"/>
  <path d="M35 43V21h5.5l7.8 12.2V21H54v22h-5.3l-8-12.4V43H35Z" fill="#D6A85E"/>
  <path d="M14 48h36" stroke="#D6A85E" stroke-width="2.2" stroke-linecap="round"/>
</svg>
